<?xml version="1.0" encoding="UTF-8" standalone="no"?>
<svg
   viewBox="0 0 904.34198 905.18964"
   fill="none"
   version="1.1"
   id="svg28"
   sodipodi:docname="aletheia-lattice-logo-1.svg"
   inkscape:version="1.4.3 (fcd0343856, 2026-01-01)"
   inkscape:export-filename="aletheia-lattice-logo-1.png"
   inkscape:export-xdpi="96"
   inkscape:export-ydpi="96"
   width="904.34198"
   height="905.18964"
   xmlns:inkscape="http://www.inkscape.org/namespaces/inkscape"
   xmlns:sodipodi="http://sodipodi.sourceforge.net/DTD/sodipodi-0.dtd"
   xmlns="http://www.w3.org/2000/svg"
   xmlns:svg="http://www.w3.org/2000/svg">
  <defs
     id="defs28" />
  <sodipodi:namedview
     id="namedview28"
     pagecolor="#ababab"
     bordercolor="#eeeeee"
     borderopacity="1"
     inkscape:showpageshadow="0"
     inkscape:pageopacity="0"
     inkscape:pagecheckerboard="0"
     inkscape:deskcolor="#505050"
     inkscape:zoom="0.92048481"
     inkscape:cx="124.93416"
     inkscape:cy="368.28419"
     inkscape:window-width="2556"
     inkscape:window-height="1385"
     inkscape:window-x="0"
     inkscape:window-y="0"
     inkscape:window-maximized="1"
     inkscape:current-layer="g28"
     showgrid="true">
    <inkscape:grid
       id="grid1"
       units="px"
       originx="-57.628456"
       originy="-1.4262685"
       spacingx="1"
       spacingy="1"
       empcolor="#0099e5"
       empopacity="0.30196078"
       color="#0099e5"
       opacity="0.14901961"
       empspacing="5"
       enabled="true"
       visible="true" />
  </sodipodi:namedview>
  <g
     fill="#444349"
     id="g28"
     transform="translate(-57.628459,-1.4262684)">
    <path
       d="m 269,680 1.92047,22.34433 C 272.72991,726.36372 277.28677,744.82447 285,767 l 19,33 20,26 27,26 35,24 28.25508,13.88748 L 442,900 l 13.09983,2.50338 18.13198,3.05626 26.09137,1.05627 26.86887,-1.24831 10.9302,-1.13579 22,-4.44035 L 590,889 l 31,-16 25,-17 26,-25 h -23 l -25,-5 -12,9 -29,16 -20,8 -39,9 -41,1 -16,-2 -31,-8 -21,-9 -31,-19 -19,-16 -22,-25 -12,-19 c -9.9825,-18.33296 -14.31413,-37.91772 -19,-58 l -3,-36 z"
       id="path1"
       sodipodi:nodetypes="cccccccccccccccccccccccccccccccccccc" />
    <path
       d="m 878.48851,625.98624 -42.18728,26.80398 -9.50712,30.97554 c -13.0434,29.3177 -28.9298,35.50966 -51.11984,57.46591 -17.74687,14.16699 -37.53157,23.25766 -58.08195,32.28341 -38.99937,11.10184 -48.63701,11.82264 -106.31951,0 -22.75479,-7.5818 -44.19335,-19.39116 -70.95384,-35.5555 l -12.72353,-8.83418 -25.69067,26.75536 14.11469,10.27818 c 23.91956,18.17043 50.87894,30.37952 78.51788,41.65725 16.6067,6.09296 33.82209,8.46045 51.19088,11.09743 18.00173,1.27331 35.44166,-0.43264 53.15974,-3.02657 25.57034,-6.71022 49.10858,-18.26708 73.04427,-29.18344 21.33353,-12.81893 38.96696,-29.51495 56.90179,-46.48079 16.92241,-18.18568 24.0108,-28.40206 35.72869,-50.0174 l 10.53998,-32.70882 z"
       id="path2"
       sodipodi:nodetypes="cccccccccccccccccc"
       style="stroke-width:0.996574" />
    <path
       d="m 586,647 -35,-15 -35,47 c -16.99765,19.58226 -36.16719,36.47266 -56,53 -18.15416,12.96039 -37.11937,24.05968 -57,34 -12.98859,5.52549 -26.34857,9.65927 -39.90102,13.46362 L 351,783 l 13,16 15,14 31,-9 c 24.60042,-9.40041 46.0531,-23.79907 68,-38 30.58804,-22.29212 55.26249,-50.54665 81,-78 l 15.50338,-24.19205 z"
       id="path3"
       sodipodi:nodetypes="cccccccccccccc" />
    <path
       d="m 174.47743,600.93401 c 0.4463,13.43301 -2.44378,23.6286 -0.66461,36.92724 l 36.15455,14.92047 c 37.67809,8.25742 84.20161,23.94224 158.76067,1.40356 L 397,644 380.23577,613 c -23.35333,8.9239 -30.3544,11.11316 -54.70332,19 -38.98366,4.74449 -55.50261,1.64799 -107.60053,-10.55668 z"
       id="path4"
       sodipodi:nodetypes="ccccccccc"
       style="stroke-width:0.993041" />
    <path
       d="m 507,593 29,19 58,28 47.23181,14.88748 25.0863,6.65567 L 677,664 671,627 631,615 600,603 576,591 540,569 Z"
       id="path5"
       sodipodi:nodetypes="cccccccccccc" />
    <path
       d="m 632,527 -35,11 -8,22 -10,20 34.38409,17.42386 5.6489,-10.25804 L 638,537 Z"
       id="path6"
       sodipodi:nodetypes="cccccccc" />
    <path
       d="m 377,509 -20.26481,30.41709 6.37733,19.10575 L 374,584 c 11.3524,27.95694 27.53716,53.2286 43,79 11.76223,14.83935 22.23146,30.6141 36.08629,43.54992 l 9.72166,9.83417 L 480,702 490,691 462,659 C 445.28798,637.48428 433.61414,614.09424 420.68866,590.23181 408.16502,566.3236 398.69943,546.64613 387.96024,525.15228 Z"
       id="path7"
       sodipodi:nodetypes="ccccccccccccc" />
    <path
       d="M 764,487 738,464 712.03892,482.90778 683,503 l 15,29 9.48985,-5.14552 19.54314,-11.27157 28.54992,-21.19882 z"
       id="path8"
       sodipodi:nodetypes="ccccccccc" />
    <path
       d="m 172.88955,497.56852 c -21.0227,28.24146 -8.32734,9.04638 -33.64712,54.34519 -12.51989,50.39555 -10.58963,68.6628 -4.63504,112.08629 17.03298,52.07524 46.54065,87.4761 88.60505,120 18.46126,12.82763 38.83536,20.7837 59.54333,29 l 29.09195,9.68866 -27.23189,-40.54314 -27.32251,-13.37733 c -36.9951,-29.23876 -63.29756,-56.43192 -83.56653,-101.11929 -8.24123,-25.7138 -9.76028,-47.39333 -6.04196,-75.3342 1.41917,-10.66424 3.59165,-20.97646 16.88077,-42.05158 L 226.04784,487 201.47441,463 Z"
       id="path9"
       sodipodi:nodetypes="cccccccccscccc"
       style="stroke-width:0.972179" />
    <path
       d="m 352,461 -3,-1 -17,27 -29,56 -16,41 -9,32 v 8 l 39,-3 4,-5 3,-13 17,-47 20,-40 15,-24 v -3 l -12,-12 z"
       id="path10"
       sodipodi:nodetypes="cccccccccccccccc" />
    <path
       d="m 587,457 h -2 l -41,42 -41,36 -37,28 -39,24 -1,2 17,30 29,-15 43,-30 37,-30 52,-50 4,-7 z"
       id="path11"
       sodipodi:nodetypes="cccccccccccccc" />
    <path
       d="M 694.21114,381 678,411.45904 700.07881,424.8755 c 16.98692,12.71611 23.76233,18.6884 40.85857,31.25679 28.71176,25.74283 34.59545,28.66652 62.34795,64.84364 11.5567,16.78102 12.41795,22.1767 19.19759,41.27554 l 7.86066,30.97469 32.05147,-22.33663 -6.7283,-26.3387 c -11.31006,-26.08872 -18.61064,-44.17947 -31.79966,-59.43947 -31.00554,-41.70259 -67.1158,-64.65758 -109.63042,-93.95835 z"
       id="path12"
       sodipodi:nodetypes="cccccccccccc"
       style="stroke-width:0.983965" />
    <path
       d="m 303.07276,385.07276 -12,5 c -16.73265,7.64934 -30.66306,19.08283 -45.09306,30.23858 l -10.90694,8.76142 24,24 9.2978,-6.33756 c 14.18577,-9.3087 20.75438,-12.70081 34.41794,-22.74873 l 16.86041,-10.08926 z"
       id="path13"
       sodipodi:nodetypes="ccccccccc" />
    <path
       d="m 532,336 -30,23 19,15 42,41 17,19 28,37 36,61 16,36 12,35 c 15.84962,47.47117 12.93215,90.9718 3.42386,138.46362 L 664,773 690.23181,769.88748 709,768 l 8.23181,-28.56937 5.84772,-35.22505 c 3.80644,-36.20859 1.15025,-57.21465 -4.50339,-92.54991 L 698,553 673,501 646,456 626,429 603,401 575,372 544,344 Z"
       id="path14"
       sodipodi:nodetypes="cccccccccccccccccccccccc" />
    <path
       d="m 130.31263,343.12315 12.51705,30.70321 c 15.10784,30.15139 16.22738,32.9058 38.03807,60.16215 37.012,42.74266 70.38812,71.46618 117.55884,100.01149 L 313,504.29362 v -2.97064 L 291.62567,487.46 252.76324,456.7634 c -20.70246,-19.35782 -38.38781,-40.86108 -55.37895,-63.37361 -14.44938,-20.78502 -16.45445,-21.45737 -24.549,-44.69727 l -11.41008,-30.29471 c -12.38468,5.99932 -20.53776,16.10307 -31.11258,24.72534 z"
       id="path15"
       sodipodi:nodetypes="cccccccccccc"
       style="stroke-width:0.980842" />
    <path
       d="M 388,302 377.08629,324.62859 361,363 l 10,19 3,2 23.27157,-11.96024 c 1.82344,-13.28815 9.34772,-25.57779 13.22209,-38.82825 L 419,316 Z"
       id="path16"
       sodipodi:nodetypes="ccccccccc" />
    <path
       d="M 917.38876,333.23814 881.7658,297.95347 c -1.02557,13.03508 -4.63889,25.31427 -8.27524,37.77495 13.47238,11.34822 14.26824,15.4797 24.13829,29.8215 26.33235,47.90275 35.17368,85.04533 18.1121,136.45008 -13.06865,28.26283 -29.84872,48.75058 -51.3521,73 -34.07746,31.2445 -52.48006,38.77605 -97.91916,48.60784 l -37.59575,9.77626 2.38006,34.84771 42.62118,-8.95346 c 47.67727,-10.46593 74.68242,-21.76582 112.08221,-51.23738 42.64317,-40.9974 95.23967,-102.12976 68.967,-205.7086 -10.71986,-32.65058 -17.96956,-47.25671 -37.53563,-69.09423 z"
       id="path17"
       sodipodi:nodetypes="ccccccccccccc"
       style="stroke-width:0.964933" />
    <path
       d="m 724.35798,278.01244 c -13.83032,-0.97121 -27.34239,1.21857 -41,3 -5.32853,25.42673 -16.39618,48.99045 -26,73 l -15,28 -16,23 26,31 23,-33 24,-45 c 7.642,-20.73845 15.39599,-41.4304 22.50338,-62.35787 z"
       id="path18"
       sodipodi:nodetypes="cccccccccc" />
    <path
       d="M 547.65567,277.3676 544,279 l -23,12 -34,21 -45,36 -45,44 -12,15 22,29 h 4 l 18,-21 52,-50 41,-31 38.63917,-22.75169 L 565,308.57614 Z"
       id="path19"
       sodipodi:nodetypes="ccccccccccccccc" />
    <path
       d="m 320.68866,238 1.08516,36 c 24.41213,4.16168 48.82701,12.20028 72.22618,20 16.96328,7.75612 34.22619,14.79716 51.47039,21.89425 L 457,322 487,300 469.86802,287.97377 C 450.92954,277.40304 431.03373,269.16189 411,261 386.10422,251.9241 363.24458,244.73412 337.40355,240.26481 Z"
       id="path20"
       sodipodi:nodetypes="cccccccccc" />
    <path
       d="m 600.91362,256 7.20854,11.32107 c 3.758,6.66779 7.6891,13.22067 11.79146,19.67893 l 46.38214,-12.88873 c 46.69181,-12.25929 59.82349,-6.88897 80.82917,-4.76235 14.99801,1.5184 30.5663,7.52101 44.24858,12.09985 l 40.08326,19.16037 c 1.76969,-13.24301 3.38281,-26.50521 4.99323,-39.76819 L 787.02891,244.4953 c -48.72282,-14.23001 -70.87195,-13.05655 -101.69467,-9.88399 -12.9805,1.33607 -25.89048,5.92346 -36.9495,8.06922 z"
       id="path21"
       sodipodi:nodetypes="ccccsccccscc" />
    <path
       d="m 216.8313,247.35128 c -57.15537,14.08009 -87.66278,31.5101 -119.004931,72.04792 -5.261212,6.80483 -15.591474,22.25562 -22.391168,36.88857 -11.307452,27.33243 -18.175354,51.82019 -17.791447,97.14539 0.323981,38.25022 14.214062,83.23062 45.703216,135.9985 l 21.46571,20.74111 c 1.83429,-13.6625 3.61942,-27.33146 5.40794,-41 L 105.98204,521.00981 C 83.31028,447.7807 89.404063,420.73642 115.79943,355.17277 c 18.77834,-29.68481 46.54415,-49.97985 76.61257,-63 16.70635,-7.67741 53.37206,-14.38564 71.09746,-18.88071 l 1.21585,-34.80796 z"
       id="path22"
       sodipodi:nodetypes="cscsccccccccc"
       style="stroke-width:0.949381" />
    <path
       d="m 533,184 -26,25 18,21 c 21.76565,26.4437 37.70072,56.11799 54,86 l 16,39 4,15 20,22 h 2 l 16,-26 -18,-52 -15,-33 c -16.62552,-32.50124 -38.43207,-61.18245 -62.85448,-88.16582 z"
       id="path23"
       sodipodi:nodetypes="ccccccccccccc" />
    <path
       d="m 289,129 -9.08639,31.83895 c -3.75079,12.75257 -7.48901,31.90875 -7.16466,57.10099 -0.37707,29.95435 0.88323,61.92463 5.092,80.82148 C 287.6471,341.97881 301.47095,367.40025 323,405 l 29,43 45,52 43,41 20,15 30,-22 v -2 l -34,-29 -37,-37 -48.45008,-63.36379 c -26.03505,-37.86887 -31.07843,-55.04524 -48.86126,-96.87479 -7.64167,-30.48371 -10.73228,-57.61515 -8.57879,-88.95129 1.42153,-20.68521 8.78884,-38.59988 12.39249,-61.20566 L 334,124 c -15.2635,-0.62027 -30.04231,2.47429 -45,5 z"
       id="path24"
       sodipodi:nodetypes="cccccccccccccccsccc" />
    <path
       d="M 631.21235,106.55669 620.49662,92.152284 580.62268,105.80118 c -25.65315,9.87977 -43.01904,21.99948 -66.00677,36.7352 -27.45255,20.31041 -50.01847,42.81264 -73.03977,68.65567 L 412,251 430.03976,258.86421 445,266 450.53638,259.23858 483,221 c 13.99814,-16.16925 29.76932,-30.20392 46,-44 32.04375,-22.8247 67.60909,-40.67319 110.18232,-52.88748 z"
       id="path25"
       sodipodi:nodetypes="ccccccccccccc" />
    <path
       d="m 686,83 14.95325,17.72843 11.31709,22.27157 19.45951,6 c 20.10612,8.68258 36.66084,21.44451 53.51365,35 16.61632,14.67915 27.59863,33.80586 39.892,52 26.45841,48.14216 19.81838,86.35854 2.91893,132 -8.81616,19.44558 -20.9037,36.61708 -33.08117,54 l -17.51356,20 3.8919,6 21.40546,20 22.94405,-24.25725 C 896.79257,304.53783 883.118,265.45046 858.21667,200 849.00458,184.17583 837.66206,170.10096 826.10848,156 811.20822,140.62029 794.6398,127.61234 777.4597,115 755.79761,100.46307 736.92684,95.178896 712.48271,87.840948 Z"
       id="path26"
       sodipodi:nodetypes="ccccccccccccccccc"
       style="stroke-width:0.986395" />
    <path
       d="M 496,147.64754 478.15159,132.05651 C 460.43196,118.10334 440.50208,108.16623 420.64004,97.756227 L 387.91795,86.322799 C 360.93401,78.923862 334.17599,79.22164 306.60852,82.165189 260.373,88.924217 225.50769,111.26138 188.61069,138.29292 155.93432,167.42657 129.23195,201.41498 121.47743,245.5464 l -5.8097,37.24545 c 15.45459,-13.07378 21.95243,-16.77824 39.64474,-24.05285 l 6.5256,-23.78164 c 9.91689,-25.5102 25.12992,-45.0512 43.62945,-64.44295 21.59809,-20.11585 47.23924,-34.67466 74.36838,-45.73372 28.32403,-9.07867 54.50436,-9.96175 83.29259,-5.19701 33.30183,7.06308 50.85343,17.68827 79.88643,34.65214 l 25.22089,19.39679 z"
       id="path27"
       sodipodi:nodetypes="cccccccccccccccc"
       style="stroke-width:1.01521" />
    <path
       d="M 333,68.762884 355.92047,70.334228 382,74.734096 c 16.26678,-11.750742 34.73802,-18.919173 53,-26.870454 46.94245,-16.908434 89.22205,-12.117216 136,2.985606 47.06793,19.15511 75.29246,46.56002 100.65567,90.319152 7.60232,16.22565 11.51055,30.1432 15.38409,47.49049 L 690,227 l 41,-2.98561 -2.34433,-37.34591 C 725.57798,163.69292 717.76531,150.65526 709,129.47021 685.43766,84.051281 650.99992,56.46552 609,28.954804 588.43605,17.510369 566.44894,11.353426 544,5.0699563 533.12734,3.3838929 522.17324,2.6540597 511.21235,1.8536521 c -30.1688,-2.20169028 -59.479,4.4335034 -88.32487,12.3246759 -24.15918,7.632637 -39.5624,16.592519 -60.7022,30.036414 z"
       id="path28"
       sodipodi:nodetypes="ccccccccccccccccc"
       style="stroke-width:0.997598" />
  </g>
</svg>
